<svg width="15" height="17" viewBox="0 0 15 17" fill="none" xmlns="http://www.w3.org/2000/svg">
<path d="M8 5.31616C9.96875 5.31616 11.5938 6.94116 11.5938 8.90991C11.5938 10.9099 9.96875 12.5037 8 12.5037C6 12.5037 4.40625 10.9099 4.40625 8.90991C4.40625 6.94116 6 5.31616 8 5.31616ZM8 11.2537C9.28125 11.2537 10.3125 10.2224 10.3125 8.90991C10.3125 7.62866 9.28125 6.59741 8 6.59741C6.6875 6.59741 5.65625 7.62866 5.65625 8.90991C5.65625 10.2224 6.71875 11.2537 8 11.2537ZM12.5625 5.19116C12.5625 5.65991 12.1875 6.03491 11.7188 6.03491C11.25 6.03491 10.875 5.65991 10.875 5.19116C10.875 4.72241 11.25 4.34741 11.7188 4.34741C12.1875 4.34741 12.5625 4.72241 12.5625 5.19116ZM14.9375 6.03491C15 7.19116 15 10.6599 14.9375 11.8162C14.875 12.9412 14.625 13.9099 13.8125 14.7537C13 15.5662 12 15.8162 10.875 15.8787C9.71875 15.9412 6.25 15.9412 5.09375 15.8787C3.96875 15.8162 3 15.5662 2.15625 14.7537C1.34375 13.9099 1.09375 12.9412 1.03125 11.8162C0.96875 10.6599 0.96875 7.19116 1.03125 6.03491C1.09375 4.90991 1.34375 3.90991 2.15625 3.09741C3 2.28491 3.96875 2.03491 5.09375 1.97241C6.25 1.90991 9.71875 1.90991 10.875 1.97241C12 2.03491 13 2.28491 13.8125 3.09741C14.625 3.90991 14.875 4.90991 14.9375 6.03491ZM13.4375 13.0349C13.8125 12.1287 13.7188 9.94116 13.7188 8.90991C13.7188 7.90991 13.8125 5.72241 13.4375 4.78491C13.1875 4.19116 12.7188 3.69116 12.125 3.47241C11.1875 3.09741 9 3.19116 8 3.19116C6.96875 3.19116 4.78125 3.09741 3.875 3.47241C3.25 3.72241 2.78125 4.19116 2.53125 4.78491C2.15625 5.72241 2.25 7.90991 2.25 8.90991C2.25 9.94116 2.15625 12.1287 2.53125 13.0349C2.78125 13.6599 3.25 14.1287 3.875 14.3787C4.78125 14.7537 6.96875 14.6599 8 14.6599C9 14.6599 11.1875 14.7537 12.125 14.3787C12.7188 14.1287 13.2188 13.6599 13.4375 13.0349Z" fill="white"/>
<a href="https://www.figma.com/design/8Owksdlph7u0sBPpzmJ6at?node-id=3-517">
<rect fill="black" fill-opacity="0" y="-1.2" width="14" height="18.4"/>
</a>
</svg>
