<svg width="105" height="15" viewBox="0 0 105 15" fill="none" xmlns="http://www.w3.org/2000/svg">
<path d="M7.58203 1.24219C7.91016 0.585938 8.83984 0.613281 9.14062 1.24219L10.9453 4.87891L14.9375 5.45312C15.6484 5.5625 15.9219 6.4375 15.4023 6.95703L12.5312 9.77344L13.2148 13.7383C13.3242 14.4492 12.5586 14.9961 11.9297 14.668L8.375 12.7812L4.79297 14.668C4.16406 14.9961 3.39844 14.4492 3.50781 13.7383L4.19141 9.77344L1.32031 6.95703C0.800781 6.4375 1.07422 5.5625 1.78516 5.45312L5.80469 4.87891L7.58203 1.24219Z" fill="#FBB138"/>
<path d="M29.582 1.24219C29.9102 0.585938 30.8398 0.613281 31.1406 1.24219L32.9453 4.87891L36.9375 5.45312C37.6484 5.5625 37.9219 6.4375 37.4023 6.95703L34.5312 9.77344L35.2148 13.7383C35.3242 14.4492 34.5586 14.9961 33.9297 14.668L30.375 12.7812L26.793 14.668C26.1641 14.9961 25.3984 14.4492 25.5078 13.7383L26.1914 9.77344L23.3203 6.95703C22.8008 6.4375 23.0742 5.5625 23.7852 5.45312L27.8047 4.87891L29.582 1.24219Z" fill="#FBB138"/>
<path d="M51.582 1.24219C51.9102 0.585938 52.8398 0.613281 53.1406 1.24219L54.9453 4.87891L58.9375 5.45312C59.6484 5.5625 59.9219 6.4375 59.4023 6.95703L56.5312 9.77344L57.2148 13.7383C57.3242 14.4492 56.5586 14.9961 55.9297 14.668L52.375 12.7812L48.793 14.668C48.1641 14.9961 47.3984 14.4492 47.5078 13.7383L48.1914 9.77344L45.3203 6.95703C44.8008 6.4375 45.0742 5.5625 45.7852 5.45312L49.8047 4.87891L51.582 1.24219Z" fill="#FBB138"/>
<path d="M73.582 1.24219C73.9102 0.585938 74.8398 0.613281 75.1406 1.24219L76.9453 4.87891L80.9375 5.45312C81.6484 5.5625 81.9219 6.4375 81.4023 6.95703L78.5312 9.77344L79.2148 13.7383C79.3242 14.4492 78.5586 14.9961 77.9297 14.668L74.375 12.7812L70.793 14.668C70.1641 14.9961 69.3984 14.4492 69.5078 13.7383L70.1914 9.77344L67.3203 6.95703C66.8008 6.4375 67.0742 5.5625 67.7852 5.45312L71.8047 4.87891L73.582 1.24219Z" fill="#FBB138"/>
<path d="M95.582 1.24219C95.9102 0.585938 96.8398 0.613281 97.1406 1.24219L98.9453 4.87891L102.938 5.45312C103.648 5.5625 103.922 6.4375 103.402 6.95703L100.531 9.77344L101.215 13.7383C101.324 14.4492 100.559 14.9961 99.9297 14.668L96.375 12.7812L92.793 14.668C92.1641 14.9961 91.3984 14.4492 91.5078 13.7383L92.1914 9.77344L89.3203 6.95703C88.8008 6.4375 89.0742 5.5625 89.7852 5.45312L93.8047 4.87891L95.582 1.24219Z" fill="#FBB138"/>
</svg>
